<mxfile host="app.diagrams.net" modified="2022-12-20T09:22:27.994Z" agent="5.0 (X11; Linux x86_64) AppleWebKit/537.36 (KHTML, like Gecko) Chrome/96.0.4664.110 Safari/537.36" etag="8uXXutCtEX5MDYxzp6WW" version="20.7.4" type="github">
  <diagram id="C5RBs43oDa-KdzZeNtuy" name="Page-1">
    <mxGraphModel dx="810" dy="1538" grid="1" gridSize="10" guides="1" tooltips="1" connect="1" arrows="1" fold="1" page="1" pageScale="1" pageWidth="827" pageHeight="1169" math="0" shadow="0">
      <root>
        <mxCell id="WIyWlLk6GJQsqaUBKTNV-0" />
        <mxCell id="WIyWlLk6GJQsqaUBKTNV-1" parent="WIyWlLk6GJQsqaUBKTNV-0" />
        <mxCell id="kb_pg4geoTnKRLb5H52R-29" value="40%" style="verticalLabelPosition=middle;verticalAlign=middle;html=1;html=1;shape=mxgraph.infographic.partConcEllipse;startAngle=0;endAngle=0.4;arcWidth=0.4;strokeColor=none;fillColor=#F2931E;fontSize=22;fontColor=#F2931E;align=center;fontStyle=1;" vertex="1" parent="WIyWlLk6GJQsqaUBKTNV-1">
          <mxGeometry x="130" y="-660" width="100" height="100" as="geometry" />
        </mxCell>
        <mxCell id="kb_pg4geoTnKRLb5H52R-30" value="25%" style="verticalLabelPosition=middle;verticalAlign=middle;html=1;html=1;shape=mxgraph.infographic.partConcEllipse;startAngle=0;endAngle=0.25;arcWidth=0.4;strokeColor=none;fillColor=#AE4132;fontSize=22;fontColor=#AE4132;align=center;fontStyle=1;" vertex="1" parent="WIyWlLk6GJQsqaUBKTNV-1">
          <mxGeometry x="129" y="-770" width="100" height="100" as="geometry" />
        </mxCell>
        <mxCell id="kb_pg4geoTnKRLb5H52R-31" value="20%" style="verticalLabelPosition=middle;verticalAlign=middle;html=1;html=1;shape=mxgraph.infographic.partConcEllipse;startAngle=0;endAngle=0.1498071947233861;arcWidth=0.4;strokeColor=none;fillColor=#23FF5D;fontSize=22;fontColor=#23445D;align=center;fontStyle=1;" vertex="1" parent="WIyWlLk6GJQsqaUBKTNV-1">
          <mxGeometry x="128" y="-310" width="100" height="100" as="geometry" />
        </mxCell>
        <mxCell id="kb_pg4geoTnKRLb5H52R-32" value="0%" style="verticalLabelPosition=middle;verticalAlign=middle;html=1;html=1;shape=mxgraph.infographic.partConcEllipse;startAngle=0;endAngle=0.00854848722062327;arcWidth=0.5;strokeColor=none;fillColor=#90AAB5;fontSize=22;fontColor=#12AAB5;align=center;fontStyle=1;" vertex="1" parent="WIyWlLk6GJQsqaUBKTNV-1">
          <mxGeometry x="129" y="-550" width="99" height="100" as="geometry" />
        </mxCell>
        <mxCell id="kb_pg4geoTnKRLb5H52R-34" value="&lt;font style=&quot;&quot;&gt;&lt;font color=&quot;#f2931e&quot;&gt;&lt;b&gt;Knowledge Sharing&lt;/b&gt;&lt;/font&gt;&lt;br&gt;&lt;br&gt;&lt;font style=&quot;font-size: 10px;&quot; size=&quot;1&quot;&gt;Knowledge Sharing by Doctor Shanthi to Team&lt;/font&gt;&lt;/font&gt;" style="rounded=1;strokeColor=none;fillColor=#EEEEEE;align=left;arcSize=12;verticalAlign=top;whiteSpace=wrap;html=1;fontSize=12;spacing=8;" vertex="1" parent="WIyWlLk6GJQsqaUBKTNV-1">
          <mxGeometry x="240" y="-660" width="210" height="100" as="geometry" />
        </mxCell>
        <mxCell id="kb_pg4geoTnKRLb5H52R-35" value="&lt;font style=&quot;&quot;&gt;&lt;font color=&quot;#ae4132&quot;&gt;&lt;b&gt;Budget Flexibility Analysis for dataset collection&lt;/b&gt;&lt;/font&gt;&lt;br&gt;&lt;br&gt;&lt;font style=&quot;font-size: 10px;&quot; size=&quot;1&quot;&gt;Budget given by Doctor for Dataset Collection is analysed by Business analyst .&lt;/font&gt;&lt;/font&gt;" style="rounded=1;strokeColor=none;fillColor=#EEEEEE;align=left;arcSize=12;verticalAlign=top;whiteSpace=wrap;html=1;fontSize=12;spacing=8;" vertex="1" parent="WIyWlLk6GJQsqaUBKTNV-1">
          <mxGeometry x="239" y="-770" width="210" height="100" as="geometry" />
        </mxCell>
        <mxCell id="kb_pg4geoTnKRLb5H52R-36" value="&lt;font style=&quot;&quot;&gt;&lt;font color=&quot;#23445d&quot;&gt;&lt;b&gt;Project Initiation&lt;/b&gt;&lt;/font&gt;&lt;br&gt;&lt;font style=&quot;&quot;&gt;&lt;span style=&quot;font-size: 10px;&quot;&gt;-Dataset collection&lt;/span&gt;&lt;br&gt;&lt;span style=&quot;font-size: 10px;&quot;&gt;-Knowledge Sharing by Doctor&amp;nbsp;&lt;/span&gt;&lt;br&gt;&lt;span style=&quot;font-size: 10px;&quot;&gt;- Skill Up-gradation&lt;br&gt;-Technical competency -Additional Technical expert support required&amp;nbsp;&lt;br&gt;-Cloud requirements&lt;br&gt;&lt;/span&gt;&lt;br&gt;&lt;br&gt;&lt;/font&gt;&lt;/font&gt;" style="rounded=1;strokeColor=none;fillColor=#EEEEEE;align=left;arcSize=12;verticalAlign=top;whiteSpace=wrap;html=1;fontSize=12;spacing=8;" vertex="1" parent="WIyWlLk6GJQsqaUBKTNV-1">
          <mxGeometry x="239" y="-310" width="210" height="120" as="geometry" />
        </mxCell>
        <mxCell id="kb_pg4geoTnKRLb5H52R-37" value="&lt;font style=&quot;&quot;&gt;&lt;font color=&quot;#12aab5&quot;&gt;&lt;b&gt;Project Charter&lt;/b&gt;&lt;/font&gt;&lt;br&gt;-Problem statement preparation&lt;br&gt;-Target audience /use case&lt;br&gt;- Tech stack identification&lt;br&gt;-Dataset sample size requirements analysis&lt;br&gt;- Identification of Goals and milestones&lt;br&gt;&lt;/font&gt;" style="rounded=1;strokeColor=none;fillColor=#EEEEEE;align=left;arcSize=12;verticalAlign=top;whiteSpace=wrap;html=1;fontSize=12;spacing=8;" vertex="1" parent="WIyWlLk6GJQsqaUBKTNV-1">
          <mxGeometry x="240" y="-450" width="210" height="130" as="geometry" />
        </mxCell>
        <mxCell id="kb_pg4geoTnKRLb5H52R-38" value="100&lt;br&gt;%" style="verticalLabelPosition=middle;verticalAlign=middle;html=1;html=1;shape=mxgraph.infographic.partConcEllipse;startAngle=0;endAngle=0.9920488743719118;arcWidth=0.29;strokeColor=none;fillColor=#FF739E;fontSize=22;fontColor=#10739E;align=center;fontStyle=1;" vertex="1" parent="WIyWlLk6GJQsqaUBKTNV-1">
          <mxGeometry x="120" y="-1000" width="100" height="100" as="geometry" />
        </mxCell>
        <mxCell id="kb_pg4geoTnKRLb5H52R-40" value="&lt;font style=&quot;&quot;&gt;&lt;font color=&quot;#10739e&quot;&gt;&lt;b&gt;Research proposal submission by Team to Doctor&lt;/b&gt;&lt;/font&gt;&lt;br&gt;&lt;br&gt;&lt;br&gt;-Created 5 versions and Submitted to Doctor for Verification&amp;nbsp;&lt;br&gt;&lt;/font&gt;" style="rounded=1;strokeColor=none;fillColor=#EEEEEE;align=left;arcSize=12;verticalAlign=top;whiteSpace=wrap;html=1;fontSize=12;spacing=8;" vertex="1" parent="WIyWlLk6GJQsqaUBKTNV-1">
          <mxGeometry x="240" y="-1000" width="210" height="100" as="geometry" />
        </mxCell>
        <mxCell id="kb_pg4geoTnKRLb5H52R-46" value="10%" style="verticalLabelPosition=middle;verticalAlign=middle;html=1;html=1;shape=mxgraph.infographic.partConcEllipse;startAngle=0;endAngle=0.08918404431977178;arcWidth=0.4;strokeColor=none;fillColor=#1200B5;fontSize=22;fontColor=#12AAB5;align=center;fontStyle=1;" vertex="1" parent="WIyWlLk6GJQsqaUBKTNV-1">
          <mxGeometry x="128" y="-440" width="100" height="100" as="geometry" />
        </mxCell>
        <mxCell id="kb_pg4geoTnKRLb5H52R-47" value="&lt;font style=&quot;border-color: var(--border-color);&quot; color=&quot;#f2931e&quot;&gt;&lt;b style=&quot;border-color: var(--border-color);&quot;&gt;Knowledge Sharing&lt;/b&gt;&lt;/font&gt;&lt;br style=&quot;border-color: var(--border-color);&quot;&gt;&lt;br style=&quot;border-color: var(--border-color);&quot;&gt;&lt;font style=&quot;border-color: var(--border-color); font-size: 10px;&quot;&gt;-Knowledge Sharing by Doctor Shanthi to Team&lt;br&gt;-Planned and discussed the total number of sessions required to complete.&lt;br&gt;&lt;/font&gt;" style="rounded=1;strokeColor=none;fillColor=#EEEEEE;align=left;arcSize=12;verticalAlign=top;whiteSpace=wrap;html=1;fontSize=12;spacing=8;" vertex="1" parent="WIyWlLk6GJQsqaUBKTNV-1">
          <mxGeometry x="240" y="-660" width="210" height="100" as="geometry" />
        </mxCell>
        <mxCell id="kb_pg4geoTnKRLb5H52R-50" value="&lt;font style=&quot;&quot;&gt;&lt;font color=&quot;#23445d&quot;&gt;&lt;b&gt;Research Proposal Approval&lt;/b&gt;&lt;/font&gt;&lt;br&gt;&lt;br&gt;&lt;font style=&quot;font-size: 10px;&quot; size=&quot;1&quot;&gt;The research proposal has to be submitted to Ethics board for approval.&lt;/font&gt;&lt;/font&gt;" style="rounded=1;strokeColor=none;fillColor=#EEEEEE;align=left;arcSize=12;verticalAlign=top;whiteSpace=wrap;html=1;fontSize=12;spacing=8;" vertex="1" parent="WIyWlLk6GJQsqaUBKTNV-1">
          <mxGeometry x="239" y="-550" width="210" height="100" as="geometry" />
        </mxCell>
        <mxCell id="kb_pg4geoTnKRLb5H52R-52" value="100&lt;br&gt;%" style="verticalLabelPosition=middle;verticalAlign=middle;html=1;html=1;shape=mxgraph.infographic.partConcEllipse;startAngle=0;endAngle=0.985714542894766;arcWidth=0.29;strokeColor=none;fillColor=#23FFEE;fontSize=22;fontColor=#10739E;align=center;fontStyle=1;" vertex="1" parent="WIyWlLk6GJQsqaUBKTNV-1">
          <mxGeometry x="129" y="-880" width="100" height="100" as="geometry" />
        </mxCell>
        <mxCell id="kb_pg4geoTnKRLb5H52R-53" value="&lt;font style=&quot;&quot;&gt;&lt;font color=&quot;#10739e&quot;&gt;&lt;b&gt;Research proposal Corrections&amp;nbsp; by Doctor&lt;/b&gt;&lt;/font&gt;&lt;br&gt;-Doctor Shanthi corrected the research proposal as per Hospital&#39;s requirement and included Budget details&lt;br&gt;&lt;br&gt;&lt;/font&gt;" style="rounded=1;strokeColor=none;fillColor=#EEEEEE;align=left;arcSize=12;verticalAlign=top;whiteSpace=wrap;html=1;fontSize=12;spacing=8;" vertex="1" parent="WIyWlLk6GJQsqaUBKTNV-1">
          <mxGeometry x="240" y="-880" width="210" height="100" as="geometry" />
        </mxCell>
        <mxCell id="kb_pg4geoTnKRLb5H52R-54" value="&lt;h1&gt;Echo Cardiography&amp;nbsp;&lt;/h1&gt;&lt;h1&gt;Project Status&lt;/h1&gt;&lt;p&gt;The Project conceptional stage and initialisation stage project activities status is given in %.&amp;nbsp;&lt;/p&gt;" style="text;html=1;strokeColor=none;fillColor=none;spacing=5;spacingTop=-20;whiteSpace=wrap;overflow=hidden;rounded=0;" vertex="1" parent="WIyWlLk6GJQsqaUBKTNV-1">
          <mxGeometry x="50" y="-1140" width="450" height="130" as="geometry" />
        </mxCell>
      </root>
    </mxGraphModel>
  </diagram>
</mxfile>
